<svg id="Ebene_1" data-name="Ebene 1" xmlns="http://www.w3.org/2000/svg" xmlns:xlink="http://www.w3.org/1999/xlink" viewBox="0 0 566.9291 566.905"><defs><style>.cls-1{fill:none;}.cls-2{fill:#fff;}.cls-3{fill:#c5c8cf;}.cls-4{fill:#393a41;}.cls-5{clip-path:url(#clip-path);}.cls-6{fill:#ededed;}</style><clipPath id="clip-path" transform="translate(0 0)"><rect class="cls-1" x="101.4644" y="264.19" width="352.2239" height="59.8782"/></clipPath></defs><path class="cls-2" d="M76.3141,564.7246A73.5219,73.5219,0,0,1,2.18,490.5909V76.3141A73.5219,73.5219,0,0,1,76.3141,2.18H490.5909a73.5219,73.5219,0,0,1,74.1337,74.1337V489.5007c0,19.6236-6.5412,38.157-20.7139,52.33s-33.7962,22.8943-52.33,22.8943Z" transform="translate(0 0)"/><path class="cls-3" d="M490.5909,5.451A70.722,70.722,0,0,1,561.454,76.3141V489.5007A72.7672,72.7672,0,0,1,541.83,539.65c-13.0824,14.1727-31.6158,21.8041-51.2394,21.8041H76.3141A70.722,70.722,0,0,1,5.451,490.5909V76.3141A70.722,70.722,0,0,1,76.3141,5.451H490.5909m0-5.451H76.3141A75.8445,75.8445,0,0,0,0,76.3141V490.5909A75.8445,75.8445,0,0,0,76.3141,566.905H490.5909c41.4276,0,77.4043-34.8865,76.3141-77.4043V76.3141A75.8445,75.8445,0,0,0,490.5909,0Z" transform="translate(0 0)"/><path class="cls-4" d="M481.867,390.991H41.5863L75.0476,197.2674H517.0891Z" transform="translate(0 0)"/><g class="cls-5"><path class="cls-6" d="M187.63,264.19c-19.7809,0-34.7973,14.89-34.7973,32.6325,0,16.0519,12.324,27.2452,29.1018,27.2452,19.7809,0,34.6938-15.3122,34.6938-33.0538C216.7319,274.8563,204.4079,264.19,187.63,264.19Zm-4.4528,44.7768c-7.56,0-12.8418-5.0689-12.8418-12.884,0-8.6594,6.5239-16.8973,15.9484-16.8973,7.5605,0,12.8428,5.28,12.8428,13.0954C199.23,301.046,192.6017,308.9668,183.1773,308.9668Z" transform="translate(0 0)"/><path class="cls-6" d="M306.6263,264.19c-19.781,0-34.6938,14.89-34.6938,32.6325,0,16.0519,12.324,27.2452,29.1018,27.2452,19.781,0,34.6938-15.3122,34.6938-33.0538C335.8316,274.8563,323.5076,264.19,306.6263,264.19Zm-4.3493,44.7768c-7.56,0-12.8418-5.0689-12.8418-12.884,0-8.6594,6.5239-16.8973,15.9484-16.8973,7.56,0,12.8418,5.28,12.8418,13.0954C318.2254,301.046,311.7014,308.9668,302.277,308.9668Z" transform="translate(0 0)"/><path class="cls-6" d="M393.9317,283.0931c0-10.7717-8.1818-17.6358-23.0946-17.6358h-20.92L340.7,322.8008h17.6052l2.9006-18.0586h.8284l9.321,18.0586H391.55l-12.9464-20.0652C388.2352,299.3564,393.9317,292.07,393.9317,283.0931Zm-28.17,9.5048H363.173l1.9676-12.0387h2.3817c5.4894,0,8.3889,1.69,8.3889,5.3859C375.9112,290.2742,371.7691,292.5979,365.7619,292.5979Z" transform="translate(0 0)"/><path class="cls-6" d="M132.6375,288.3733c-6.7318-3.4849-8.1816-4.3292-8.1816-6.23,0-2.3237,2.6927-3.485,6.3174-3.485a22.7385,22.7385,0,0,1,16.9843,6.6529,38.1853,38.1853,0,0,1,7.4569-13.3067c-8.9065-5.1743-17.1917-7.8144-24.7519-7.8144-15.0169,0-23.7164,8.2371-23.7164,18.1645,0,8.5538,6.3174,12.9886,13.7742,16.8962,6.7317,3.4849,8.3887,4.6472,8.3887,6.7585,0,2.3236-2.7962,3.59-6.5245,3.59-6.4211,0-13.8778-4.1178-18.3311-8.3424l-2.5891,15.9463a34.1277,34.1277,0,0,0,21.2308,6.8641c15.5348,0,23.9235-8.0254,23.9235-18.2688C146.6187,297.35,141.2334,292.8092,132.6375,288.3733Z" transform="translate(0 0)"/><path class="cls-6" d="M263.1294,290.5913H242.4165l1.6568-10.0321H266.236a39.8384,39.8384,0,0,1,12.8417-15.1019h-36.247c-8.0783,0-14.9139,5.5971-16.053,13.2009l-7.0417,44.2482h17.6053l2.9005-18.0585h20.92l1.5534-9.8207C262.8187,293.4432,262.9223,292.07,263.1294,290.5913Z" transform="translate(0 0)"/><path class="cls-6" d="M394.3459,265.4573a21.2929,21.2929,0,0,1,8.2854,15.1019H417.337l-6.731,42.2416h17.6053l6.732-42.2416H451.307l2.3817-15.1019Z" transform="translate(0 0)"/></g></svg>